<svg width="278" height="320" viewBox="0 0 278 320" fill="none" xmlns="http://www.w3.org/2000/svg">
<path d="M14.6013 313.884C29.0612 324.045 49.0205 320.56 59.1818 306.101C69.3431 291.641 65.8585 271.681 51.3987 261.52C36.9388 251.359 16.9795 254.843 6.81816 269.303C-3.34314 283.763 0.141494 303.722 14.6013 313.884ZM37.9091 291.152L93.1051 212.606L83.2869 205.707L28.0909 284.252L37.9091 291.152Z" fill="#BDC1C7"/>
<path d="M61.6253 61.1844C77.6162 53.6592 84.4791 34.5957 76.954 18.6047C69.4288 2.61373 50.3652 -4.24916 34.3743 3.276C18.3833 10.8012 11.5204 29.8647 19.0456 45.8557C26.5707 61.8467 45.6343 68.7096 61.6253 61.1844ZM112.614 155.445L53.4287 29.6754L42.5708 34.785L101.757 160.555L112.614 155.445Z" fill="#BDC1C7"/>
<path d="M272.465 278.729C281.704 263.663 276.98 243.96 261.914 234.721C246.849 225.482 227.146 230.205 217.907 245.271C208.667 260.337 213.391 280.04 228.457 289.279C243.523 298.518 263.226 293.795 272.465 278.729ZM248.322 256.885L132.386 185.788L126.113 196.017L242.049 267.115L248.322 256.885Z" fill="#BDC1C7"/>
<path d="M135.477 187.048C135.477 193.448 134.24 199.037 131.765 203.816C129.291 208.595 125.749 212.307 121.141 214.952C116.619 217.512 111.285 218.792 105.141 218.792C99.0827 218.792 93.7493 217.512 89.1413 214.952C84.5333 212.307 80.992 208.637 78.5173 203.944C76.0427 199.165 74.8053 193.533 74.8053 187.048C74.8053 180.477 76.0427 174.845 78.5173 170.152C81.0773 165.459 84.6613 161.832 89.2693 159.272C93.8773 156.627 99.2107 155.304 105.269 155.304C111.243 155.304 116.491 156.627 121.013 159.272C125.621 161.832 129.163 165.501 131.637 170.28C134.197 174.973 135.477 180.563 135.477 187.048ZM105.141 166.056C100.107 166.056 96.096 167.933 93.1093 171.688C90.1227 175.357 88.6293 180.477 88.6293 187.048C88.6293 193.619 90.08 198.739 92.9813 202.408C95.8827 206.077 99.936 207.912 105.141 207.912C110.347 207.912 114.4 206.077 117.301 202.408C120.288 198.653 121.781 193.533 121.781 187.048C121.781 180.477 120.288 175.357 117.301 171.688C114.4 167.933 110.347 166.056 105.141 166.056Z" fill="#BDC1C7"/>
</svg>
